<svg width="41" height="41" viewBox="0 0 41 41" fill="none" xmlns="http://www.w3.org/2000/svg">
<path fill-rule="evenodd" clip-rule="evenodd" d="M13.3727 9.77829C14.2733 9.76157 15.1727 9.85391 16.0512 10.0533C16.7908 10.2148 17.4931 10.5153 18.1206 10.9388C18.7002 11.36 19.1587 11.9262 19.4503 12.5806C19.7853 13.3853 19.947 14.2516 19.9246 15.123C19.9627 16.0798 19.7183 17.0267 19.222 17.8455C18.6999 18.619 17.9781 19.2366 17.1333 19.6331C18.2798 19.9421 19.2783 20.6501 19.9494 21.6296C20.5936 22.6675 20.9174 23.8723 20.8803 25.0933C20.9015 26.0668 20.7002 27.0323 20.2918 27.9162C19.9142 28.6873 19.3614 29.3593 18.6775 29.8784C17.9734 30.3918 17.1811 30.7716 16.34 30.999C15.4676 31.2403 14.5665 31.3615 13.6614 31.3593H3.72412V9.77829H13.3727ZM12.7993 18.5069C13.5069 18.5361 14.2036 18.3243 14.7752 17.906C15.0489 17.6623 15.2619 17.358 15.397 17.0173C15.5322 16.6766 15.5857 16.309 15.5534 15.9439C15.5718 15.5175 15.4869 15.0929 15.3059 14.7064C15.1525 14.3986 14.9138 14.1413 14.6184 13.9652C14.3192 13.7714 13.983 13.6417 13.6312 13.5844C13.2494 13.5104 12.8608 13.4767 12.472 13.484H8.22594V18.5262H12.7993V18.5069ZM13.0468 27.6948C13.4747 27.7006 13.9018 27.6545 14.3187 27.5573C14.6996 27.4732 15.0609 27.3168 15.3829 27.0967C15.6984 26.8767 15.9534 26.5806 16.1241 26.2359C16.322 25.7964 16.413 25.3162 16.3895 24.8348C16.4324 24.396 16.3743 23.9533 16.2196 23.5405C16.0649 23.1277 15.8177 22.7558 15.4971 22.4532C14.8174 21.9526 13.9845 21.7047 13.1417 21.752H8.22594V27.6948H13.0468Z" fill="#F9FCF3"/>
<path fill-rule="evenodd" clip-rule="evenodd" d="M27.292 27.6151C27.6454 27.9426 28.0616 28.1948 28.5154 28.3565C28.9693 28.5182 29.4512 28.5859 29.9321 28.5556C30.6943 28.5749 31.4418 28.3429 32.0592 27.8956C32.5616 27.569 32.942 27.0856 33.1414 26.5206H36.7315C36.349 28.1291 35.4149 29.5527 34.0915 30.5439C32.822 31.3865 31.3217 31.8133 29.7987 31.7649C28.7117 31.7792 27.633 31.5748 26.6265 31.164C25.7161 30.7843 24.8995 30.2104 24.234 29.4824C23.5709 28.7195 23.0615 27.8356 22.7338 26.8794C22.366 25.8106 22.186 24.6862 22.2017 23.556C22.195 22.4447 22.3811 21.3407 22.7517 20.2931C23.2496 18.8192 24.2016 17.541 25.4711 16.6418C26.7406 15.7426 28.2624 15.2686 29.8179 15.288C30.9664 15.264 32.1021 15.5328 33.118 16.069C34.0363 16.5726 34.8284 17.2777 35.4349 18.1315C36.0553 19.0275 36.5 20.033 36.7453 21.0947C37.0144 22.2348 37.1103 23.409 37.0299 24.5777H26.3364C26.2497 25.6757 26.5923 26.7645 27.292 27.6151ZM31.9836 19.4076C31.6844 19.1083 31.3244 18.8766 30.9281 18.7281C30.5317 18.5796 30.1082 18.5178 29.6859 18.5468C29.1258 18.5254 28.5696 18.6496 28.0717 18.9071C27.6769 19.1244 27.3284 19.4168 27.0459 19.7678C26.7955 20.097 26.6089 20.4701 26.4959 20.8678C26.394 21.1996 26.3303 21.5419 26.3061 21.8881H32.9296C32.8719 20.9856 32.5432 20.1216 31.9864 19.4089L31.9836 19.4076Z" fill="#F9FCF3"/>
<path d="M25.4522 11.2193H33.7519V13.3409H25.4522V11.2193Z" fill="#F9FCF3"/>
</svg>
