<svg width="41" height="41" viewBox="0 0 41 41" fill="none" xmlns="http://www.w3.org/2000/svg">
<path d="M15.3905 17.4632H17.0571C17.4992 17.4632 17.9231 17.2876 18.2356 16.9751C18.5482 16.6625 18.7238 16.2386 18.7238 15.7965C18.7238 15.3545 18.5482 14.9306 18.2356 14.618C17.9231 14.3055 17.4992 14.1299 17.0571 14.1299H15.3905C14.9484 14.1299 14.5245 14.3055 14.212 14.618C13.8994 14.9306 13.7238 15.3545 13.7238 15.7965C13.7238 16.2386 13.8994 16.6625 14.212 16.9751C14.5245 17.2876 14.9484 17.4632 15.3905 17.4632ZM15.3905 20.7965C14.9484 20.7965 14.5245 20.9721 14.212 21.2847C13.8994 21.5973 13.7238 22.0212 13.7238 22.4632C13.7238 22.9052 13.8994 23.3292 14.212 23.6417C14.5245 23.9543 14.9484 24.1299 15.3905 24.1299H25.3905C25.8325 24.1299 26.2564 23.9543 26.569 23.6417C26.8815 23.3292 27.0571 22.9052 27.0571 22.4632C27.0571 22.0212 26.8815 21.5973 26.569 21.2847C26.2564 20.9721 25.8325 20.7965 25.3905 20.7965H15.3905ZM33.7238 15.6965C33.7064 15.5434 33.6729 15.3926 33.6238 15.2465V15.0965C33.5437 14.9252 33.4368 14.7677 33.3071 14.6299L23.3071 4.62988C23.1694 4.50024 23.0118 4.39335 22.8405 4.31322C22.7907 4.30615 22.7402 4.30615 22.6905 4.31322C22.5212 4.21612 22.3342 4.15379 22.1405 4.12988H12.0571C10.731 4.12988 9.45928 4.65667 8.5216 5.59435C7.58391 6.53203 7.05713 7.8038 7.05713 9.12988V32.4632C7.05713 33.7893 7.58391 35.0611 8.5216 35.9988C9.45928 36.9364 10.731 37.4632 12.0571 37.4632H28.7238C30.0499 37.4632 31.3216 36.9364 32.2593 35.9988C33.197 35.0611 33.7238 33.7893 33.7238 32.4632V15.7965C33.7238 15.7965 33.7238 15.7965 33.7238 15.6965ZM23.7238 9.81322L28.0405 14.1299H25.3905C24.9484 14.1299 24.5245 13.9543 24.212 13.6417C23.8994 13.3292 23.7238 12.9052 23.7238 12.4632V9.81322ZM30.3905 32.4632C30.3905 32.9052 30.2149 33.3292 29.9023 33.6417C29.5897 33.9543 29.1658 34.1299 28.7238 34.1299H12.0571C11.6151 34.1299 11.1912 33.9543 10.8786 33.6417C10.5661 33.3292 10.3905 32.9052 10.3905 32.4632V9.12988C10.3905 8.68786 10.5661 8.26393 10.8786 7.95137C11.1912 7.63881 11.6151 7.46322 12.0571 7.46322H20.3905V12.4632C20.3905 13.7893 20.9172 15.0611 21.8549 15.9988C22.7926 16.9364 24.0644 17.4632 25.3905 17.4632H30.3905V32.4632ZM25.3905 27.4632H15.3905C14.9484 27.4632 14.5245 27.6388 14.212 27.9514C13.8994 28.2639 13.7238 28.6879 13.7238 29.1299C13.7238 29.5719 13.8994 29.9958 14.212 30.3084C14.5245 30.621 14.9484 30.7965 15.3905 30.7965H25.3905C25.8325 30.7965 26.2564 30.621 26.569 30.3084C26.8815 29.9958 27.0571 29.5719 27.0571 29.1299C27.0571 28.6879 26.8815 28.2639 26.569 27.9514C26.2564 27.6388 25.8325 27.4632 25.3905 27.4632Z" fill="#F9FCF3"/>
</svg>
