<svg width="41" height="41" viewBox="0 0 41 41" fill="none" xmlns="http://www.w3.org/2000/svg">
<path d="M35.0713 8.07991V33.6681C35.0713 34.2532 34.8389 34.8143 34.4252 35.2279C34.0115 35.6416 33.4504 35.874 32.8654 35.874H7.27717C6.69214 35.874 6.13106 35.6416 5.71738 35.2279C5.30369 34.8143 5.07129 34.2532 5.07129 33.6681V8.07991C5.07129 7.49487 5.30369 6.93379 5.71738 6.52011C6.13106 6.10643 6.69214 5.87402 7.27717 5.87402H32.8654C33.4504 5.87402 34.0115 6.10643 34.4252 6.52011C34.8389 6.93379 35.0713 7.49487 35.0713 8.07991ZM13.8948 17.3446H9.48305V31.4623H13.8948V17.3446ZM14.2919 12.4917C14.2942 12.158 14.2308 11.8271 14.1052 11.5179C13.9796 11.2087 13.7944 10.9272 13.5601 10.6896C13.3257 10.452 13.0469 10.2629 12.7395 10.133C12.4321 10.0032 12.1021 9.93516 11.7683 9.93285H11.6889C11.0103 9.93285 10.3594 10.2024 9.87957 10.6823C9.3997 11.1622 9.13011 11.813 9.13011 12.4917C9.13011 13.1703 9.3997 13.8212 9.87957 14.301C10.3594 14.7809 11.0103 15.0505 11.6889 15.0505C12.0227 15.0587 12.3548 15.0011 12.6662 14.8809C12.9777 14.7607 13.2624 14.5804 13.5041 14.3501C13.7458 14.1198 13.9398 13.8442 14.075 13.539C14.2102 13.2337 14.2839 12.9048 14.2919 12.5711V12.4917ZM30.6595 22.8858C30.6595 18.6417 27.9595 16.9917 25.2772 16.9917C24.3989 16.9477 23.5245 17.1348 22.7411 17.5342C21.9577 17.9336 21.2927 18.5315 20.8125 19.2681H20.6889V17.3446H16.5419V31.4623H20.9536V23.9534C20.8899 23.1844 21.1321 22.4213 21.6277 21.8298C22.1234 21.2384 22.8324 20.8664 23.6007 20.7946H23.7683C25.1713 20.7946 26.2125 21.677 26.2125 23.9005V31.4623H30.6242L30.6595 22.8858Z" fill="#F9FCF3"/>
</svg>
