<svg width="41" height="41" viewBox="0 0 41 41" fill="none" xmlns="http://www.w3.org/2000/svg">
<path d="M32.0575 7.33691H8.72412C7.39804 7.33691 6.12627 7.8637 5.18859 8.80138C4.25091 9.73906 3.72412 11.0108 3.72412 12.3369V29.0036C3.72412 30.3297 4.25091 31.6014 5.18859 32.5391C6.12627 33.4768 7.39804 34.0036 8.72412 34.0036H32.0575C33.3835 34.0036 34.6553 33.4768 35.593 32.5391C36.5307 31.6014 37.0575 30.3297 37.0575 29.0036V12.3369C37.0575 11.0108 36.5307 9.73906 35.593 8.80138C34.6553 7.8637 33.3835 7.33691 32.0575 7.33691ZM8.72412 10.6702H32.0575C32.4995 10.6702 32.9234 10.8458 33.236 11.1584C33.5485 11.471 33.7241 11.8949 33.7241 12.3369L20.3908 20.4702L7.05745 12.3369C7.05745 11.8949 7.23305 11.471 7.54561 11.1584C7.85817 10.8458 8.28209 10.6702 8.72412 10.6702ZM33.7241 29.0036C33.7241 29.4456 33.5485 29.8695 33.236 30.1821C32.9234 30.4947 32.4995 30.6702 32.0575 30.6702H8.72412C8.28209 30.6702 7.85817 30.4947 7.54561 30.1821C7.23305 29.8695 7.05745 29.4456 7.05745 29.0036V16.1369L19.5241 23.7536C19.7775 23.8999 20.0649 23.9769 20.3575 23.9769C20.65 23.9769 20.9374 23.8999 21.1908 23.7536L33.7241 16.1369V29.0036Z" fill="#F9FCF3"/>
</svg>
