<svg width="41" height="41" viewBox="0 0 41 41" fill="none" xmlns="http://www.w3.org/2000/svg">
<path fill-rule="evenodd" clip-rule="evenodd" d="M13.0266 9.24558C13.9273 9.22885 14.8266 9.32119 15.7051 9.52058C16.4448 9.68207 17.147 9.98256 17.7745 10.4061C18.3541 10.8273 18.8127 11.3935 19.1042 12.0479C19.4392 12.8526 19.6009 13.7189 19.5786 14.5903C19.6166 15.5471 19.3723 16.4939 18.8759 17.3128C18.3538 18.0863 17.6321 18.7039 16.7873 19.1004C17.9337 19.4094 18.9322 20.1174 19.6033 21.0969C20.2476 22.1348 20.5714 23.3396 20.5342 24.5606C20.5555 25.5341 20.3542 26.4996 19.9457 27.3835C19.5681 28.1546 19.0153 28.8266 18.3314 29.3457C17.6274 29.859 16.8351 30.2389 15.9939 30.4663C15.1216 30.7076 14.2204 30.8288 13.3153 30.8266H3.37805V9.24558H13.0266ZM12.4532 17.9742C13.1609 18.0034 13.8575 17.7915 14.4291 17.3733C14.7029 17.1296 14.9158 16.8253 15.051 16.4846C15.1861 16.1439 15.2397 15.7763 15.2074 15.4112C15.2257 14.9848 15.1408 14.5602 14.9599 14.1737C14.8064 13.8659 14.5678 13.6086 14.2724 13.4325C13.9731 13.2387 13.637 13.109 13.2851 13.0516C12.9033 12.9777 12.5148 12.944 12.1259 12.9513H7.87988V17.9935H12.4532V17.9742ZM12.7007 27.1621C13.1287 27.1679 13.5558 27.1217 13.9726 27.0246C14.3535 26.9405 14.7148 26.7841 15.0369 26.564C15.3524 26.344 15.6073 26.0479 15.778 25.7032C15.976 25.2637 16.0669 24.7835 16.0434 24.3021C16.0863 23.8633 16.0282 23.4206 15.8735 23.0078C15.7188 22.595 15.4717 22.223 15.151 21.9205C14.4713 21.4199 13.6384 21.1719 12.7956 21.2193H7.87988V27.1621H12.7007Z" fill="#DA4646"/>
<path fill-rule="evenodd" clip-rule="evenodd" d="M26.946 27.0824C27.2993 27.4099 27.7155 27.6621 28.1694 27.8238C28.6232 27.9855 29.1052 28.0532 29.586 28.0229C30.3482 28.0421 31.0957 27.8102 31.7132 27.3629C32.2155 27.0362 32.5959 26.5529 32.7953 25.9879H36.3855C36.003 27.5964 35.0688 29.02 33.7454 30.0112C32.4759 30.8538 30.9756 31.2805 29.4526 31.2322C28.3656 31.2464 27.2869 31.0421 26.2804 30.6313C25.37 30.2516 24.5535 29.6777 23.8879 28.9496C23.2248 28.1868 22.7154 27.3029 22.3878 26.3467C22.0199 25.2779 21.8399 24.1535 21.8556 23.0233C21.8489 21.912 22.035 20.808 22.4056 19.7604C22.9035 18.2865 23.8556 17.0083 25.1251 16.1091C26.3946 15.2099 27.9163 14.7359 29.4719 14.7553C30.6203 14.7313 31.756 15.0001 32.7719 15.5363C33.6902 16.0398 34.4824 16.745 35.0888 17.5988C35.7092 18.4947 36.1539 19.5003 36.3992 20.562C36.6683 21.7021 36.7643 22.8763 36.6839 24.0449H25.9903C25.9037 25.1429 26.2462 26.2318 26.946 27.0824ZM31.6375 18.8749C31.3383 18.5755 30.9784 18.3438 30.582 18.1954C30.1857 18.0469 29.7621 17.9851 29.3399 18.0141C28.7797 17.9927 28.2235 18.1168 27.7256 18.3743C27.3308 18.5917 26.9824 18.8841 26.6998 19.2351C26.4494 19.5642 26.2629 19.9373 26.1498 20.3351C26.0479 20.6669 25.9843 21.0092 25.9601 21.3554H32.5835C32.5258 20.4529 32.1971 19.5888 31.6403 18.8762L31.6375 18.8749Z" fill="#DA4646"/>
<path d="M25.1062 10.6866H33.4058V12.8082H25.1062V10.6866Z" fill="#DA4646"/>
</svg>
