<svg width="41" height="41" viewBox="0 0 41 41" fill="none" xmlns="http://www.w3.org/2000/svg">
<path d="M35.3169 7.44563V33.0339C35.3169 33.6189 35.0845 34.18 34.6708 34.5937C34.2571 35.0073 33.696 35.2397 33.111 35.2397H7.52278C6.93774 35.2397 6.37667 35.0073 5.96298 34.5937C5.5493 34.18 5.31689 33.6189 5.31689 33.0339V7.44563C5.31689 6.86059 5.5493 6.29952 5.96298 5.88583C6.37667 5.47215 6.93774 5.23975 7.52278 5.23975H33.111C33.696 5.23975 34.2571 5.47215 34.6708 5.88583C35.0845 6.29952 35.3169 6.86059 35.3169 7.44563V7.44563ZM14.1404 16.7103H9.72866V30.828H14.1404V16.7103ZM14.5375 11.8574C14.5398 11.5237 14.4764 11.1928 14.3508 10.8836C14.2253 10.5744 14.04 10.2929 13.8057 10.0553C13.5714 9.81771 13.2925 9.62859 12.9851 9.49874C12.6777 9.3689 12.3477 9.30088 12.014 9.29857H11.9345C11.2559 9.29857 10.6051 9.56816 10.1252 10.048C9.64531 10.5279 9.37572 11.1788 9.37572 11.8574C9.37572 12.536 9.64531 13.1869 10.1252 13.6668C10.6051 14.1466 11.2559 14.4162 11.9345 14.4162V14.4162C12.2683 14.4244 12.6004 14.3668 12.9118 14.2466C13.2233 14.1264 13.508 13.9461 13.7497 13.7158C13.9915 13.4856 14.1854 13.2099 14.3206 12.9047C14.4558 12.5994 14.5295 12.2705 14.5375 11.9368V11.8574ZM30.9051 22.2515C30.9051 18.0074 28.2051 16.3574 25.5228 16.3574C24.6445 16.3134 23.7701 16.5005 22.9867 16.8999C22.2033 17.2994 21.5383 17.8972 21.0581 18.6339H20.9345V16.7103H16.7875V30.828H21.1992V23.3192C21.1355 22.5501 21.3777 21.787 21.8734 21.1955C22.369 20.6041 23.078 20.2321 23.8463 20.1603H24.014C25.4169 20.1603 26.4581 21.0427 26.4581 23.2662V30.828H30.8698L30.9051 22.2515Z" fill="#DA4646"/>
</svg>
